<svg xmlns="http://www.w3.org/2000/svg" viewBox="0 0 16 16" id="Pixiv--Streamline-Font-Awesome" height="16" width="16">
  <desc>
    Pixiv Streamline Icon: https://streamlinehq.com
  </desc>
<!--! Font Awesome Free 6.5.2 by @fontawesome - https://fontawesome.com License - https://fontawesome.com/license/free (Icons: CC BY 4.0, Fonts: SIL OFL 1.1, Code: MIT License) Copyright 2024 Fonticons, Inc.-->
  <path d="M2.4 0.16C1.1645 0.16 0.16 1.1645 0.16 2.4v11.200000000000001c0 1.2355 1.0045 2.2399999999999998 2.2399999999999998 2.2399999999999998h11.200000000000001c1.2355 0 2.2399999999999998 -1.0045 2.2399999999999998 -2.2399999999999998V2.4c0 -1.2355 -1.0045 -2.2399999999999998 -2.2399999999999998 -2.2399999999999998H2.4ZM8.4025 3.0999999999999996c1.4349999999999998 0 2.6705 0.45149999999999996 3.549 1.232 0.882 0.7769999999999999 1.3929999999999998 1.8935 1.3929999999999998 3.1079999999999997 0.0035 1.2355 -0.581 2.3205 -1.484 3.045 -0.9065 0.728 -2.121 1.134 -3.4579999999999997 1.134 -1.5225 0 -2.933 -0.5635 -2.933 -0.5635v1.813c0.25899999999999995 0.077 0.6895 0.245 0.4165 0.5179999999999999h-2.058c-0.2695 -0.27299999999999996 0.126 -0.43399999999999994 0.4235 -0.5179999999999999V5.1825c-0.693 0.539 -1.0465 1.008 -1.2285000000000001 1.3545 0.21 0.6789999999999999 -0.1855 0.6475 -0.1855 0.6475l-0.7174999999999999 -1.155S4.664499999999999 3.0999999999999996 8.4025 3.0999999999999996Zm-0.126 7.8015c1.0499999999999998 0 1.96 -0.39549999999999996 2.5864999999999996 -1.022 0.6265000000000001 -0.6335 0.9764999999999999 -1.456 0.98 -2.4570000000000003 -0.0035 -1.0254999999999999 -0.3325 -1.911 -0.9345 -2.576 -0.602 -0.6614999999999999 -1.4944999999999997 -1.0955 -2.6319999999999997 -1.099 -0.9345 -0.0035 -2.093 0.315 -2.807 0.8294999999999999v5.7715c0.651 0.3255 1.638 0.5565 2.807 0.5529999999999999Z" fill="#ffffff" stroke-width="0.0357"></path>
</svg>